<svg width="17" height="17" viewBox="0 0 17 17" fill="none" xmlns="http://www.w3.org/2000/svg">
<path d="M7.5 10.8333V9.16667H5.83333C5.3731 9.16667 5 8.79357 5 8.33333C5 7.8731 5.3731 7.5 5.83333 7.5H7.5V5.83333C7.5 5.3731 7.8731 5 8.33333 5C8.79357 5 9.16667 5.3731 9.16667 5.83333V7.5H10.8333C11.2936 7.5 11.6667 7.8731 11.6667 8.33333C11.6667 8.79357 11.2936 9.16667 10.8333 9.16667H9.16667V10.8333C9.16667 11.2936 8.79357 11.6667 8.33333 11.6667C7.8731 11.6667 7.5 11.2936 7.5 10.8333Z" fill="white"/>
<path fill-rule="evenodd" clip-rule="evenodd" d="M8.33333 0C3.73096 0 0 3.73096 0 8.33333C0 12.9357 3.73096 16.6667 8.33333 16.6667C12.9357 16.6667 16.6667 12.9357 16.6667 8.33333C16.6667 3.73096 12.9357 0 8.33333 0ZM1.66667 8.33333C1.66667 4.65144 4.65144 1.66667 8.33333 1.66667C12.0152 1.66667 15 4.65144 15 8.33333C15 12.0152 12.0152 15 8.33333 15C4.65144 15 1.66667 12.0152 1.66667 8.33333Z" fill="white"/>
</svg>
