<svg width="20" height="20" viewBox="0 0 20 20" fill="none" xmlns="http://www.w3.org/2000/svg">
<path d="M1.66669 5.41675C1.66669 3.64898 1.66669 2.7651 2.21586 2.21592C2.76504 1.66675 3.64892 1.66675 5.41669 1.66675C7.18445 1.66675 8.06834 1.66675 8.61751 2.21592C9.16669 2.7651 9.16669 3.64898 9.16669 5.41675C9.16669 7.18452 9.16669 8.0684 8.61751 8.61757C8.06834 9.16675 7.18445 9.16675 5.41669 9.16675C3.64892 9.16675 2.76504 9.16675 2.21586 8.61757C1.66669 8.0684 1.66669 7.18452 1.66669 5.41675Z" fill="#006FEE"/>
<path d="M10.8333 14.5833C10.8333 12.8155 10.8333 11.9316 11.3825 11.3824C11.9317 10.8333 12.8155 10.8333 14.5833 10.8333C16.3511 10.8333 17.235 10.8333 17.7841 11.3824C18.3333 11.9316 18.3333 12.8155 18.3333 14.5833C18.3333 16.351 18.3333 17.2349 17.7841 17.7841C17.235 18.3333 16.3511 18.3333 14.5833 18.3333C12.8155 18.3333 11.9317 18.3333 11.3825 17.7841C10.8333 17.2349 10.8333 16.351 10.8333 14.5833Z" fill="#006FEE"/>
<path d="M1.66669 14.5833C1.66669 12.8155 1.66669 11.9316 2.21586 11.3824C2.76504 10.8333 3.64892 10.8333 5.41669 10.8333C7.18445 10.8333 8.06834 10.8333 8.61751 11.3824C9.16669 11.9316 9.16669 12.8155 9.16669 14.5833C9.16669 16.351 9.16669 17.2349 8.61751 17.7841C8.06834 18.3333 7.18445 18.3333 5.41669 18.3333C3.64892 18.3333 2.76504 18.3333 2.21586 17.7841C1.66669 17.2349 1.66669 16.351 1.66669 14.5833Z" fill="#006FEE"/>
<path d="M10.8333 5.41675C10.8333 3.64898 10.8333 2.7651 11.3825 2.21592C11.9317 1.66675 12.8155 1.66675 14.5833 1.66675C16.3511 1.66675 17.235 1.66675 17.7841 2.21592C18.3333 2.7651 18.3333 3.64898 18.3333 5.41675C18.3333 7.18452 18.3333 8.0684 17.7841 8.61757C17.235 9.16675 16.3511 9.16675 14.5833 9.16675C12.8155 9.16675 11.9317 9.16675 11.3825 8.61757C10.8333 8.0684 10.8333 7.18452 10.8333 5.41675Z" fill="#006FEE"/>
</svg>
