<svg width="20" height="20" viewBox="0 0 20 20" fill="none" xmlns="http://www.w3.org/2000/svg">
<path d="M14.9733 7.75411V7.19141C14.9733 4.1018 12.5602 1.59717 9.58337 1.59717C6.6066 1.59717 4.19344 4.1018 4.19344 7.19141V7.75411C4.19344 8.42941 4.00086 9.0896 3.63995 9.65148L2.75554 11.0284C1.94771 12.2861 2.56442 13.9955 3.96943 14.3932C7.64494 15.4337 11.5218 15.4337 15.1973 14.3932C16.6023 13.9955 17.219 12.2861 16.4112 11.0284L15.5268 9.65148C15.1659 9.0896 14.9733 8.42941 14.9733 7.75411Z" stroke="black" stroke-width="1.4375"/>
<path d="M5.98962 15.1735C6.51274 16.5693 7.92422 17.5693 9.58337 17.5693C11.2425 17.5693 12.654 16.5693 13.1771 15.1735" stroke="black" stroke-width="1.4375" stroke-linecap="round"/>
</svg>
