<svg width="48" height="48" viewBox="0 0 48 48" fill="none" xmlns="http://www.w3.org/2000/svg">
<g filter="url(#filter0_di_5556_50049)">
<path d="M26.2222 8C33.586 8 39.5556 14.1401 39.5556 21.7143V24C42.1954 25.3686 44 28.5783 44 31.7657C44 36.3134 40.3264 40 35.7949 40H15.1111C8.97461 40 4 34.8833 4 28.5714C4 22.7883 8.17612 18.0085 13.5957 17.2483C13.5957 12.8427 19 8 26.2222 8Z" fill="#337FDD"/>
</g>
<g clip-path="url(#clip0_5556_50049)">
<path d="M17.4985 25.0039L16.8531 22.5953C16.6581 21.8678 17.4401 21.2678 18.0923 21.6444L18.8872 22.1033C20.7547 18.8687 24.8909 17.7604 28.1255 19.6279C28.5298 19.8613 28.6684 20.3783 28.4349 20.7827C28.2015 21.187 27.6845 21.3255 27.2801 21.0921C24.8542 19.6914 21.7521 20.5227 20.3514 22.9486L21.1463 23.4076C21.7986 23.7842 21.6699 24.7613 20.9424 24.9563L18.5338 25.6016C18.0828 25.7225 17.6193 25.4549 17.4985 25.0039Z" fill="#E7EBEE"/>
<path d="M22.208 29.8773C21.8036 29.6439 21.2866 29.7824 21.0532 30.1868C20.8197 30.5911 20.9583 31.1081 21.3626 31.3415C24.5972 33.2091 28.7334 32.1008 30.6009 28.8662L31.3958 29.3251C32.048 29.7017 32.8299 29.1017 32.635 28.3742L31.9896 25.9656C31.8688 25.5146 31.4052 25.247 30.9543 25.3678L28.5456 26.0132C27.8182 26.2081 27.6895 27.1853 28.3418 27.5619L29.1367 28.0208C27.736 30.4468 24.6339 31.278 22.208 29.8773Z" fill="#E7EBEE"/>
</g>
<defs>
<filter id="filter0_di_5556_50049" x="2.02062" y="6.51546" width="43.9588" height="35.9588" filterUnits="userSpaceOnUse" color-interpolation-filters="sRGB">
<feFlood flood-opacity="0" result="BackgroundImageFix"/>
<feColorMatrix in="SourceAlpha" type="matrix" values="0 0 0 0 0 0 0 0 0 0 0 0 0 0 0 0 0 0 127 0" result="hardAlpha"/>
<feOffset dy="0.494845"/>
<feGaussianBlur stdDeviation="0.989691"/>
<feComposite in2="hardAlpha" operator="out"/>
<feColorMatrix type="matrix" values="0 0 0 0 0 0 0 0 0 0 0 0 0 0 0 0 0 0 0.18 0"/>
<feBlend mode="normal" in2="BackgroundImageFix" result="effect1_dropShadow_5556_50049"/>
<feBlend mode="normal" in="SourceGraphic" in2="effect1_dropShadow_5556_50049" result="shape"/>
<feColorMatrix in="SourceAlpha" type="matrix" values="0 0 0 0 0 0 0 0 0 0 0 0 0 0 0 0 0 0 127 0" result="hardAlpha"/>
<feOffset/>
<feGaussianBlur stdDeviation="1.18763"/>
<feComposite in2="hardAlpha" operator="arithmetic" k2="-1" k3="1"/>
<feColorMatrix type="matrix" values="0 0 0 0 1 0 0 0 0 1 0 0 0 0 1 0 0 0 1 0"/>
<feBlend mode="normal" in2="shape" result="effect2_innerShadow_5556_50049"/>
</filter>
<clipPath id="clip0_5556_50049">
<rect width="20.2887" height="20.2887" fill="white" transform="translate(10.8866 29.1978) rotate(-60)"/>
</clipPath>
</defs>
</svg>
