<svg width="264" height="48" viewBox="0 0 264 48" fill="none" xmlns="http://www.w3.org/2000/svg">
<g filter="url(#filter0_di_5591_1649)">
<path d="M26.2222 8C33.586 8 39.5556 14.1401 39.5556 21.7143V24C42.1954 25.3686 44 28.5783 44 31.7657C44 36.3134 40.3264 40 35.7949 40H15.1111C8.97461 40 4 34.8833 4 28.5714C4 22.7883 8.17612 18.0085 13.5957 17.2483C13.5957 12.8427 19 8 26.2222 8Z" fill="#337FDD"/>
</g>
<g clip-path="url(#clip0_5591_1649)">
<path d="M17.4985 25.0039L16.8531 22.5953C16.6581 21.8678 17.4401 21.2678 18.0923 21.6444L18.8872 22.1033C20.7547 18.8687 24.8909 17.7604 28.1255 19.6279C28.5298 19.8613 28.6684 20.3783 28.4349 20.7827C28.2015 21.187 27.6845 21.3255 27.2801 21.0921C24.8542 19.6914 21.7521 20.5227 20.3514 22.9486L21.1463 23.4076C21.7986 23.7842 21.6699 24.7613 20.9424 24.9563L18.5338 25.6016C18.0828 25.7225 17.6193 25.4549 17.4985 25.0039Z" fill="#E7EBEE"/>
<path d="M22.208 29.8773C21.8036 29.6439 21.2866 29.7824 21.0532 30.1868C20.8197 30.5911 20.9583 31.1081 21.3626 31.3415C24.5972 33.2091 28.7334 32.1008 30.6009 28.8662L31.3958 29.3251C32.048 29.7017 32.8299 29.1017 32.635 28.3742L31.9896 25.9656C31.8688 25.5146 31.4052 25.247 30.9543 25.3678L28.5456 26.0132C27.8182 26.2081 27.6895 27.1853 28.3418 27.5619L29.1367 28.0208C27.736 30.4468 24.6339 31.278 22.208 29.8773Z" fill="#E7EBEE"/>
</g>
<path d="M90.992 15.56V33H84.752V22.408L78.128 33H72.208L65.296 22.568V33H59.056V15.56H66.576L75.184 28.52L83.76 15.56H90.992ZM99.8393 13.768C99.1566 13.768 98.5806 13.5333 98.1113 13.064C97.6419 12.5947 97.4073 12.0187 97.4073 11.336C97.4073 10.6747 97.6419 10.12 98.1113 9.672C98.5806 9.20267 99.1566 8.968 99.8393 8.968C100.501 8.968 101.066 9.20267 101.535 9.672C102.005 10.12 102.239 10.6747 102.239 11.336C102.239 12.0187 102.005 12.5947 101.535 13.064C101.066 13.5333 100.501 13.768 99.8393 13.768ZM107.871 13.768C107.189 13.768 106.613 13.5333 106.143 13.064C105.674 12.5947 105.439 12.0187 105.439 11.336C105.439 10.6747 105.674 10.12 106.143 9.672C106.613 9.20267 107.189 8.968 107.871 8.968C108.533 8.968 109.098 9.20267 109.567 9.672C110.037 10.12 110.271 10.6747 110.271 11.336C110.271 12.0187 110.037 12.5947 109.567 13.064C109.119 13.5333 108.554 13.768 107.871 13.768ZM115.711 24.84H98.3033C98.4313 26.3333 98.9859 27.5707 99.9673 28.552C100.97 29.512 102.346 29.992 104.095 29.992C105.034 29.992 105.909 29.832 106.719 29.512C107.551 29.192 108.213 28.7333 108.703 28.136C109.215 27.5387 109.471 26.856 109.471 26.088H115.711C115.711 27.56 115.242 28.872 114.303 30.024C113.386 31.1547 112.053 32.04 110.303 32.68C108.554 33.32 106.474 33.64 104.063 33.64C101.845 33.64 99.8073 33.2453 97.9513 32.456C96.0953 31.6667 94.6339 30.5573 93.5673 29.128C92.5006 27.6773 91.9673 26.024 91.9673 24.168C91.9673 22.2907 92.5006 20.6373 93.5673 19.208C94.6339 17.7573 96.0846 16.648 97.9193 15.88C99.7539 15.0907 101.802 14.696 104.063 14.696C106.325 14.696 108.33 15.08 110.079 15.848C111.829 16.616 113.194 17.704 114.175 19.112C115.178 20.52 115.69 22.152 115.711 24.008V24.168H115.743H115.711V24.84ZM104.095 18.248C101.194 18.248 99.3699 19.496 98.6233 21.992H109.247C108.671 19.496 106.954 18.248 104.095 18.248ZM139.785 24.68C139.742 26.1947 139.369 27.6347 138.665 29C137.961 30.3653 136.969 31.4747 135.689 32.328C134.409 33.16 132.947 33.576 131.305 33.576C127.635 33.576 124.862 32.712 122.985 30.984V39.08H116.745V15.56H122.345L122.793 17.896C124.67 16.0187 127.507 15.112 131.305 15.176C132.947 15.176 134.398 15.5813 135.657 16.392C136.937 17.2027 137.939 18.312 138.665 19.72C139.39 21.128 139.763 22.7067 139.785 24.456V24.552V24.68ZM128.073 29.736C129.203 29.736 130.163 29.48 130.953 28.968C131.763 28.456 132.371 27.8053 132.777 27.016C133.203 26.2053 133.427 25.3733 133.449 24.52C133.406 22.9413 132.937 21.6187 132.041 20.552C131.145 19.4853 129.822 18.952 128.073 18.952C127.091 18.952 126.206 19.1973 125.417 19.688C124.649 20.1787 124.051 20.8293 123.625 21.64C123.198 22.4507 122.985 23.3147 122.985 24.232V24.296C122.985 25.896 123.454 27.208 124.393 28.232C125.331 29.2347 126.558 29.736 128.073 29.736ZM167.04 28.456H170.208V36.072H163.968V33.032L146.24 33V36.072H140V28.456H142.56C143.392 27.2613 144.01 26.1307 144.416 25.064C144.821 23.976 145.088 22.7387 145.216 21.352C145.344 19.944 145.408 18.0133 145.408 15.56H167.008L167.04 28.456ZM151.424 19.848C151.381 21.9173 151.221 23.5813 150.944 24.84C150.666 26.0987 150.165 27.304 149.44 28.456H160.768V19.88L151.424 19.848ZM196.912 23.4L206.128 33H198.992L191.184 25V33H184.944V25L177.168 33H170L179.248 23.368L170.928 15.56H178.16L184.944 21.832V15.56H191.184V21.896L198 15.56H205.232L196.912 23.4ZM227.151 24.84H209.743C209.871 26.3333 210.426 27.5707 211.407 28.552C212.41 29.512 213.786 29.992 215.535 29.992C216.474 29.992 217.349 29.832 218.159 29.512C218.991 29.192 219.653 28.7333 220.143 28.136C220.655 27.5387 220.911 26.856 220.911 26.088H227.151C227.151 27.56 226.682 28.872 225.743 30.024C224.826 31.1547 223.493 32.04 221.743 32.68C219.994 33.32 217.914 33.64 215.503 33.64C213.285 33.64 211.247 33.2453 209.391 32.456C207.535 31.6667 206.074 30.5573 205.007 29.128C203.941 27.6773 203.407 26.024 203.407 24.168C203.407 22.2907 203.941 20.6373 205.007 19.208C206.074 17.7573 207.525 16.648 209.359 15.88C211.194 15.0907 213.242 14.696 215.503 14.696C217.807 14.696 219.834 15.08 221.583 15.848C223.333 16.616 224.687 17.704 225.647 19.112C226.629 20.4987 227.13 22.1307 227.151 24.008V24.168H227.183H227.151V24.84ZM215.535 18.248C212.634 18.248 210.81 19.496 210.063 21.992H220.687C220.111 19.496 218.394 18.248 215.535 18.248ZM251.225 24.68C251.182 26.1947 250.809 27.6347 250.105 29C249.401 30.3653 248.409 31.4747 247.129 32.328C245.849 33.16 244.387 33.576 242.745 33.576C239.075 33.576 236.302 32.712 234.425 30.984V39.08H228.185V15.56H233.785L234.233 17.896C236.11 16.0187 238.947 15.112 242.745 15.176C244.387 15.176 245.838 15.5813 247.097 16.392C248.377 17.2027 249.379 18.312 250.105 19.72C250.83 21.128 251.203 22.7067 251.225 24.456V24.552V24.68ZM239.513 29.736C240.643 29.736 241.603 29.48 242.393 28.968C243.203 28.456 243.811 27.8053 244.217 27.016C244.643 26.2053 244.867 25.3733 244.889 24.52C244.846 22.9413 244.377 21.6187 243.481 20.552C242.585 19.4853 241.262 18.952 239.513 18.952C238.531 18.952 237.646 19.1973 236.857 19.688C236.089 20.1787 235.491 20.8293 235.065 21.64C234.638 22.4507 234.425 23.3147 234.425 24.232V24.296C234.425 25.896 234.894 27.208 235.833 28.232C236.771 29.2347 237.998 29.736 239.513 29.736ZM252.293 27.56H258.501V33H252.293V27.56Z" fill="black"/>
<defs>
<filter id="filter0_di_5591_1649" x="2.02062" y="6.51546" width="43.9588" height="35.9588" filterUnits="userSpaceOnUse" color-interpolation-filters="sRGB">
<feFlood flood-opacity="0" result="BackgroundImageFix"/>
<feColorMatrix in="SourceAlpha" type="matrix" values="0 0 0 0 0 0 0 0 0 0 0 0 0 0 0 0 0 0 127 0" result="hardAlpha"/>
<feOffset dy="0.494845"/>
<feGaussianBlur stdDeviation="0.989691"/>
<feComposite in2="hardAlpha" operator="out"/>
<feColorMatrix type="matrix" values="0 0 0 0 0 0 0 0 0 0 0 0 0 0 0 0 0 0 0.18 0"/>
<feBlend mode="normal" in2="BackgroundImageFix" result="effect1_dropShadow_5591_1649"/>
<feBlend mode="normal" in="SourceGraphic" in2="effect1_dropShadow_5591_1649" result="shape"/>
<feColorMatrix in="SourceAlpha" type="matrix" values="0 0 0 0 0 0 0 0 0 0 0 0 0 0 0 0 0 0 127 0" result="hardAlpha"/>
<feOffset/>
<feGaussianBlur stdDeviation="1.18763"/>
<feComposite in2="hardAlpha" operator="arithmetic" k2="-1" k3="1"/>
<feColorMatrix type="matrix" values="0 0 0 0 1 0 0 0 0 1 0 0 0 0 1 0 0 0 1 0"/>
<feBlend mode="normal" in2="shape" result="effect2_innerShadow_5591_1649"/>
</filter>
<clipPath id="clip0_5591_1649">
<rect width="20.2887" height="20.2887" fill="white" transform="translate(10.8866 29.1978) rotate(-60)"/>
</clipPath>
</defs>
</svg>
