<svg width="15" height="17" viewBox="0 0 15 17" fill="none" xmlns="http://www.w3.org/2000/svg">
<path d="M0 3.47223C0 3.0887 0.287817 2.77779 0.642857 2.77779L2.86306 2.77742C3.30419 2.76534 3.69335 2.46235 3.84345 2.01409C3.8474 2.00231 3.85193 1.98777 3.86821 1.93502L3.96388 1.62494C4.02242 1.43482 4.07342 1.26919 4.14479 1.12114C4.42674 0.536242 4.9484 0.130086 5.55122 0.0260997C5.70381 -0.000221586 5.8654 -0.000110273 6.05088 1.75447e-05H8.94926C9.13474 -0.000110273 9.29633 -0.000221586 9.44892 0.0260997C10.0517 0.130086 10.5734 0.536242 10.8554 1.12114C10.9267 1.26919 10.9777 1.43482 11.0363 1.62494L11.1319 1.93502C11.1482 1.98777 11.1527 2.00231 11.1567 2.01409C11.3068 2.46235 11.7732 2.76571 12.2143 2.77779H14.3571C14.7122 2.77779 15 3.0887 15 3.47223C15 3.85576 14.7122 4.16667 14.3571 4.16667H0.642857C0.287817 4.16667 0 3.85576 0 3.47223Z" fill="#71717A"/>
<path d="M7.38064 16.6665H8.03642C10.2927 16.6665 11.4208 16.6665 12.1543 15.9472C12.8878 15.2278 12.9628 14.0479 13.1129 11.688L13.3291 8.28753C13.4106 7.00707 13.4513 6.36684 13.0833 5.96113C12.7154 5.55542 12.094 5.55542 10.8512 5.55542H4.56588C3.32309 5.55542 2.7017 5.55542 2.33373 5.96113C1.96576 6.36684 2.00648 7.00707 2.08791 8.28753L2.30417 11.688C2.45425 14.0479 2.52929 15.2278 3.26278 15.9472C3.99627 16.6665 5.12439 16.6665 7.38064 16.6665Z" fill="#71717A"/>
</svg>
