<svg width="20" height="20" viewBox="0 0 20 20" fill="none" xmlns="http://www.w3.org/2000/svg">
<path d="M12.2934 3.23728L11.8126 3.77152L12.2934 3.23728ZM15.4549 6.08265L14.9741 6.61689L15.4549 6.08265ZM17.2936 8.10917L16.637 8.40158L16.637 8.40158L17.2936 8.10917ZM2.53329 16.6338L3.04152 16.1256H3.04152L2.53329 16.6338ZM16.6342 16.6338L16.126 16.1256L16.6342 16.6338ZM11.181 17.5694V16.8507H7.98655V17.5694V18.2882H11.181V17.5694ZM1.59766 11.1805H2.31641V7.9861H1.59766H0.878906V11.1805H1.59766ZM17.5699 10.8315H16.8511V11.1805H17.5699H18.2886V10.8315H17.5699ZM12.2934 3.23728L11.8126 3.77152L14.9741 6.61689L15.4549 6.08265L15.9358 5.54841L12.7742 2.70304L12.2934 3.23728ZM17.5699 10.8315H18.2886C18.2886 9.49371 18.3031 8.60936 17.9501 7.81675L17.2936 8.10917L16.637 8.40158C16.8366 8.84984 16.8511 9.36674 16.8511 10.8315H17.5699ZM15.4549 6.08265L14.9741 6.61689C16.0628 7.59675 16.4373 7.95332 16.637 8.40158L17.2936 8.10917L17.9501 7.81675C17.5971 7.02414 16.9301 6.44332 15.9357 5.54841L15.4549 6.08265ZM8.01034 1.59721V2.31596C9.28265 2.31596 9.73291 2.32706 10.1322 2.4803L10.3897 1.80926L10.6472 1.13822C9.94142 0.867367 9.17379 0.878464 8.01034 0.878464V1.59721ZM12.2934 3.23728L12.7742 2.70304C11.9136 1.9285 11.353 1.40903 10.6472 1.13822L10.3897 1.80926L10.1322 2.4803C10.5317 2.63358 10.8717 2.92476 11.8126 3.77152L12.2934 3.23728ZM7.98655 17.5694V16.8507C6.46035 16.8507 5.38801 16.8492 4.57714 16.7401C3.78695 16.6339 3.35353 16.4376 3.04152 16.1256L2.53329 16.6338L2.02505 17.142C2.64867 17.7657 3.43601 18.0372 4.3856 18.1648C5.31452 18.2897 6.50099 18.2882 7.98655 18.2882V17.5694ZM1.59766 11.1805H0.878906C0.878906 12.6661 0.87738 13.8526 1.00227 14.7815C1.12994 15.7311 1.40144 16.5184 2.02505 17.142L2.53329 16.6338L3.04152 16.1256C2.72951 15.8136 2.53319 15.3801 2.42695 14.59C2.31793 13.7791 2.31641 12.7067 2.31641 11.1805H1.59766ZM11.181 17.5694V18.2882C12.6665 18.2882 13.853 18.2897 14.7819 18.1648C15.7315 18.0372 16.5189 17.7657 17.1425 17.142L16.6342 16.6338L16.126 16.1256C15.814 16.4376 15.3806 16.6339 14.5904 16.7401C13.7795 16.8492 12.7072 16.8507 11.181 16.8507V17.5694ZM17.5699 11.1805H16.8511C16.8511 12.7067 16.8496 13.7791 16.7406 14.59C16.6343 15.3801 16.438 15.8136 16.126 16.1256L16.6342 16.6338L17.1425 17.142C17.7661 16.5184 18.0376 15.7311 18.1653 14.7815C18.2902 13.8526 18.2886 12.6661 18.2886 11.1805H17.5699ZM1.59766 7.9861H2.31641C2.31641 6.45991 2.31793 5.38757 2.42695 4.5767C2.53319 3.78651 2.72951 3.35309 3.04152 3.04108L2.53329 2.53284L2.02505 2.02461C1.40144 2.64823 1.12994 3.43556 1.00227 4.38516C0.87738 5.31407 0.878906 6.50055 0.878906 7.9861H1.59766ZM8.01034 1.59721V0.878464C6.51678 0.878464 5.3246 0.87695 4.39197 1.00177C3.43922 1.12928 2.64923 1.40043 2.02505 2.02461L2.53329 2.53284L3.04152 3.04108C3.35297 2.72963 3.78771 2.53296 4.58266 2.42657C5.39775 2.31748 6.47628 2.31596 8.01034 2.31596V1.59721Z" fill="#006FEE"/>
<path d="M4.79199 11.5797H11.1809" stroke="#006FEE" stroke-width="1.4375" stroke-linecap="round"/>
<path d="M4.79199 14.3749H9.18435" stroke="#006FEE" stroke-width="1.4375" stroke-linecap="round"/>
<path d="M10.3818 1.99637V3.9929C10.3818 5.87524 10.3818 6.81641 10.9666 7.40118C11.5514 7.98595 12.4925 7.98595 14.3749 7.98595H17.5693" stroke="#006FEE" stroke-width="1.4375"/>
</svg>
