<svg width="17" height="17" viewBox="0 0 17 17" fill="none" xmlns="http://www.w3.org/2000/svg">
<path fill-rule="evenodd" clip-rule="evenodd" d="M10 16.6667H6.66667C3.52397 16.6667 1.95262 16.6667 0.976311 15.6904C0 14.714 0 13.1427 0 10V6.66667C0 3.52397 0 1.95262 0.976311 0.976311C1.95262 0 3.53225 0 6.69149 0C7.1965 0 7.60116 -3.55455e-07 7.94167 0.0138843C7.93047 0.080494 7.92459 0.14844 7.92436 0.217138L7.91666 2.57914C7.91659 3.49339 7.91653 4.30137 8.00409 4.95263C8.099 5.65856 8.31692 6.36439 8.89298 6.94045C9.46904 7.5165 10.1749 7.73443 10.8808 7.82934C11.5321 7.91689 12.34 7.91683 13.2543 7.91676L13.3333 7.91676H16.6312C16.6667 8.36198 16.6667 8.90841 16.6667 9.63575V10C16.6667 13.1427 16.6667 14.714 15.6904 15.6904C14.714 16.6667 13.1427 16.6667 10 16.6667Z" fill="#71717A"/>
<path d="M14.4598 4.68054L11.1608 1.71146C10.2209 0.865567 9.75096 0.44262 9.17435 0.221354L9.16667 2.50009C9.16667 4.46427 9.16667 5.44637 9.77686 6.05656C10.3871 6.66676 11.3691 6.66676 13.3333 6.66676H16.3167C16.0146 6.0799 15.4736 5.59304 14.4598 4.68054Z" fill="#71717A"/>
</svg>
