<svg width="20" height="20" viewBox="0 0 20 20" fill="none" xmlns="http://www.w3.org/2000/svg">
<path d="M15.8334 2.5H4.16669C2.98818 2.5 2.39892 2.5 2.0328 2.8435C1.66669 3.187 1.66669 3.73985 1.66669 4.84555V5.4204C1.66669 6.28527 1.66669 6.7177 1.88302 7.07618C2.09935 7.43466 2.49458 7.65715 3.28504 8.10212L5.71256 9.46865C6.2429 9.7672 6.50808 9.91648 6.69795 10.0813C7.09334 10.4246 7.33675 10.8279 7.44705 11.3226C7.50002 11.5602 7.50002 11.8382 7.50002 12.3941L7.50002 14.6187C7.50002 15.3766 7.50002 15.7556 7.70996 16.0511C7.91989 16.3465 8.29276 16.4923 9.03848 16.7838C10.604 17.3958 11.3868 17.7018 11.9434 17.3537C12.5 17.0055 12.5 16.2099 12.5 14.6187V12.3941C12.5 11.8382 12.5 11.5602 12.553 11.3226C12.6633 10.8279 12.9067 10.4246 13.3021 10.0813C13.492 9.91648 13.7571 9.7672 14.2875 9.46865L16.715 8.10212C17.5055 7.65715 17.9007 7.43466 18.117 7.07618C18.3334 6.7177 18.3334 6.28527 18.3334 5.4204V4.84555C18.3334 3.73985 18.3334 3.187 17.9672 2.8435C17.6011 2.5 17.0119 2.5 15.8334 2.5Z" stroke="#52525B" stroke-width="1.5"/>
</svg>
