<svg width="23" height="23" viewBox="0 0 23 23" fill="none" xmlns="http://www.w3.org/2000/svg">
<path d="M3.74166 3.74166C3.74166 1.6752 5.41685 0 7.48332 0H18.7083C20.7747 0 22.4499 1.6752 22.4499 3.74166V18.7083C22.4499 20.7747 20.7747 22.4499 18.7083 22.4499H7.48332C5.41685 22.4499 3.74166 20.7747 3.74166 18.7083V17.4611C3.74166 16.7722 4.30006 16.2138 4.98888 16.2138C5.6777 16.2138 6.2361 16.7722 6.2361 17.4611V18.7083C6.2361 19.3971 6.7945 19.9555 7.48332 19.9555H18.7083C19.3971 19.9555 19.9555 19.3971 19.9555 18.7083V3.74166C19.9555 3.05284 19.3971 2.49444 18.7083 2.49444H7.48332C6.7945 2.49444 6.2361 3.05284 6.2361 3.74166V4.98888C6.2361 5.6777 5.6777 6.2361 4.98888 6.2361C4.30006 6.2361 3.74166 5.6777 3.74166 4.98888V3.74166Z" fill="black"/>
<path d="M0 11.225C0 10.5362 0.558399 9.97775 1.24722 9.97775H13.2028L10.3431 7.11801C9.85599 6.63094 9.85599 5.84125 10.3431 5.35418C10.8301 4.86711 11.6198 4.86711 12.1069 5.35418L17.0949 10.3422C17.0979 10.3452 17.1009 10.3482 17.1039 10.3512C17.2194 10.4689 17.3069 10.6038 17.3664 10.7476C17.427 10.8935 17.4606 11.0535 17.4611 11.2212L17.4611 11.225L17.4611 11.2287C17.4606 11.3965 17.427 11.5564 17.3664 11.7024C17.3056 11.8495 17.2153 11.9873 17.0958 12.1069L12.1069 17.0958C11.6198 17.5828 10.8301 17.5828 10.3431 17.0958C9.85599 16.6087 9.85599 15.819 10.3431 15.3319L13.2028 12.4722H1.24722C0.558399 12.4722 0 11.9138 0 11.225Z" fill="black"/>
</svg>
