<svg width="20" height="20" viewBox="0 0 20 20" fill="none" xmlns="http://www.w3.org/2000/svg">
<path fill-rule="evenodd" clip-rule="evenodd" d="M10.9056 17.8232L11.3573 17.0599C11.7077 16.468 11.8829 16.172 12.1643 16.0083C12.4457 15.8446 12.8001 15.8385 13.5087 15.8263C14.5548 15.8083 15.2109 15.7442 15.7612 15.5162C16.7822 15.0934 17.5933 14.2822 18.0162 13.2613C18.3334 12.4956 18.3334 11.5248 18.3334 9.58342V8.75008C18.3334 6.02222 18.3334 4.65829 17.7194 3.65634C17.3758 3.09569 16.9044 2.62431 16.3438 2.28075C15.3418 1.66675 13.9779 1.66675 11.25 1.66675H8.75002C6.02216 1.66675 4.65823 1.66675 3.65628 2.28075C3.09563 2.62431 2.62425 3.09569 2.28069 3.65634C1.66669 4.65829 1.66669 6.02222 1.66669 8.75008V9.58342C1.66669 11.5248 1.66669 12.4956 1.98386 13.2613C2.40675 14.2822 3.21789 15.0934 4.23884 15.5162C4.78909 15.7442 5.4452 15.8083 6.49134 15.8263C7.19996 15.8385 7.55427 15.8446 7.83568 16.0083C8.11709 16.172 8.29229 16.468 8.64269 17.0599L9.09444 17.8232C9.49708 18.5034 10.5029 18.5034 10.9056 17.8232ZM13.3334 10.0001C13.7936 10.0001 14.1667 9.62699 14.1667 9.16675C14.1667 8.70651 13.7936 8.33342 13.3334 8.33342C12.8731 8.33342 12.5 8.70651 12.5 9.16675C12.5 9.62699 12.8731 10.0001 13.3334 10.0001ZM10.8334 9.16675C10.8334 9.62699 10.4603 10.0001 10 10.0001C9.53978 10.0001 9.16669 9.62699 9.16669 9.16675C9.16669 8.70651 9.53978 8.33342 10 8.33342C10.4603 8.33342 10.8334 8.70651 10.8334 9.16675ZM6.66669 10.0001C7.12692 10.0001 7.50002 9.62699 7.50002 9.16675C7.50002 8.70651 7.12692 8.33342 6.66669 8.33342C6.20645 8.33342 5.83335 8.70651 5.83335 9.16675C5.83335 9.62699 6.20645 10.0001 6.66669 10.0001Z" fill="#71717A"/>
</svg>
